<svg width="1440" height="743" viewBox="0 0 1440 743" fill="none" xmlns="http://www.w3.org/2000/svg">
<path fill-rule="evenodd" clip-rule="evenodd" d="M245.906 379.124C253.423 379.124 259.517 373.246 259.517 365.996C259.517 358.746 253.423 352.869 245.906 352.869C238.388 352.869 232.294 358.746 232.294 365.996C232.294 373.246 238.388 379.124 245.906 379.124Z" stroke="#FE4F20" stroke-width="3"/>
<path fill-rule="evenodd" clip-rule="evenodd" d="M1090.63 258.169C1098.15 258.169 1104.24 252.291 1104.24 245.041C1104.24 237.791 1098.15 231.914 1090.63 231.914C1083.12 231.914 1077.02 237.791 1077.02 245.041C1077.02 252.291 1083.12 258.169 1090.63 258.169Z" stroke="#FE4F20" stroke-width="3"/>
<path fill-rule="evenodd" clip-rule="evenodd" d="M1300.84 550.021C1290.55 556.151 1287.11 569.103 1293.2 579.273C1299.29 589.443 1312.64 593.05 1323.29 587.52L1300.84 550.021Z" fill="#40BE65"/>
<path fill-rule="evenodd" clip-rule="evenodd" d="M494.772 66.0842C505.062 59.9541 508.497 47.0021 502.409 36.8325C496.321 26.6628 482.973 23.056 472.324 28.5851L494.772 66.0842Z" fill="#0072CA"/>
<path d="M1158 27.6914C1149.91 14.1701 1132.16 9.37443 1118 16.7259" stroke="#FE4F20" stroke-width="3"/>
<path d="M341.325 653.664C349.42 640.143 344.852 622.922 331.172 614.771" stroke="#78379D" stroke-width="3"/>
<path fill-rule="evenodd" clip-rule="evenodd" d="M963.284 667.28C978.319 667.28 990.507 655.526 990.507 641.026C990.507 626.526 978.319 614.771 963.284 614.771C948.249 614.771 936.061 626.526 936.061 641.026C936.061 655.526 948.249 667.28 963.284 667.28Z" fill="white"/>
<path fill-rule="evenodd" clip-rule="evenodd" d="M22.4592 157.232C34.863 157.232 44.9184 147.534 44.9184 135.572C44.9184 123.61 34.863 113.912 22.4592 113.912C10.0553 113.912 0 123.61 0 135.572C0 147.534 10.0553 157.232 22.4592 157.232Z" fill="white"/>
<path fill-rule="evenodd" clip-rule="evenodd" d="M1259.76 377.769C1268.4 377.769 1275.41 371.01 1275.41 362.672C1275.41 354.335 1268.4 347.576 1259.76 347.576C1251.11 347.576 1244.1 354.335 1244.1 362.672C1244.1 371.01 1251.11 377.769 1259.76 377.769Z" fill="white"/>
<path fill-rule="evenodd" clip-rule="evenodd" d="M471.643 549.736C480.288 549.736 487.296 542.977 487.296 534.639C487.296 526.302 480.288 519.543 471.643 519.543C462.998 519.543 455.989 526.302 455.989 534.639C455.989 542.977 462.998 549.736 471.643 549.736Z" fill="white"/>
<path fill-rule="evenodd" clip-rule="evenodd" d="M1424.35 77.175C1432.99 77.175 1440 70.4162 1440 62.0787C1440 53.7413 1432.99 46.9824 1424.35 46.9824C1415.7 46.9824 1408.69 53.7413 1408.69 62.0787C1408.69 70.4162 1415.7 77.175 1424.35 77.175Z" fill="white"/>
<path fill-rule="evenodd" clip-rule="evenodd" d="M409.616 704.932L449.09 714.801L419.85 743.001L409.616 704.932Z" fill="#EDC054"/>
<path d="M124.378 560.793L128.127 576.458L144.071 571.759L147.824 587.426L163.77 582.728L167.525 598.396" stroke="#0072CA" stroke-width="3"/>
<path d="M784.03 223.379C789.813 221.884 791.809 229.069 797.592 227.575C803.377 226.08 801.381 218.895 807.165 217.4C812.951 215.905 814.947 223.09 820.732 221.594C826.518 220.099 824.522 212.915 830.308 211.42C836.094 209.924 838.09 217.109 843.876 215.614" stroke="#EDC054" stroke-width="3"/>
<path d="M722.648 71.6231L723.727 72.6644L724.807 71.6231L723.727 70.5818L722.648 71.6231ZM721.568 72.6644L720.488 71.6231L720.488 71.6231L721.568 72.6644ZM720.488 69.5405L721.568 68.4992L720.488 67.4579L719.409 68.4992L720.488 69.5405ZM719.409 70.5818L720.488 71.6231L720.488 71.6231L719.409 70.5818ZM710.864 78.8229L709.784 79.8642L710.864 80.9055L711.943 79.8642L710.864 78.8229ZM702.319 70.5815L701.239 71.6228L701.239 71.6228L702.319 70.5815ZM701.239 69.5402L702.319 68.4989L701.239 67.4576L700.159 68.4989L701.239 69.5402ZM699.079 71.6228L698 70.5815L696.92 71.6228L698 72.664L699.079 71.6228ZM700.159 72.664L701.239 71.6228L701.239 71.6228L700.159 72.664ZM708.704 80.9055L709.784 81.9468L710.864 80.9055L709.784 79.8642L708.704 80.9055ZM700.16 89.1465L699.08 88.1052L700.16 89.1465ZM699.08 90.1878L698 89.1465L696.921 90.1878L698 91.2291L699.08 90.1878ZM701.239 92.2704L700.16 93.3117L701.239 94.353L702.319 93.3117L701.239 92.2704ZM702.319 91.2291L703.399 92.2704L703.399 92.2704L702.319 91.2291ZM710.864 82.9881L711.943 81.9468L710.864 80.9055L709.784 81.9468L710.864 82.9881ZM719.409 91.2295L718.329 92.2708L719.409 91.2295ZM720.489 92.2708L719.409 93.3121L720.489 94.3534L721.568 93.3121L720.489 92.2708ZM722.648 90.1882L723.728 91.2295L724.807 90.1882L723.728 89.1469L722.648 90.1882ZM721.568 89.1469L722.648 88.1056L721.568 89.1469ZM713.023 80.9055L711.943 79.8642L710.864 80.9055L711.943 81.9468L713.023 80.9055ZM721.568 70.5818L720.488 71.6231L722.648 73.7057L723.727 72.6644L721.568 70.5818ZM719.409 70.5818L721.568 72.6644L723.727 70.5818L721.568 68.4992L719.409 70.5818ZM720.488 71.6231L721.568 70.5818L719.409 68.4992L718.329 69.5405L720.488 71.6231ZM711.943 79.8642L720.488 71.6231L718.329 69.5405L709.784 77.7816L711.943 79.8642ZM701.239 71.6228L709.784 79.8642L711.943 77.7816L703.398 69.5402L701.239 71.6228ZM700.159 70.5815L701.239 71.6228L703.398 69.5402L702.319 68.4989L700.159 70.5815ZM700.159 72.664L702.319 70.5815L700.159 68.4989L698 70.5815L700.159 72.664ZM701.239 71.6228L700.159 70.5815L698 72.664L699.079 73.7053L701.239 71.6228ZM709.784 79.8642L701.239 71.6228L699.079 73.7053L707.625 81.9468L709.784 79.8642ZM701.239 90.1878L709.784 81.9468L707.625 79.8642L699.08 88.1052L701.239 90.1878ZM700.16 91.2291L701.239 90.1878L699.08 88.1052L698 89.1465L700.16 91.2291ZM702.319 91.2291L700.16 89.1465L698 91.2291L700.16 93.3117L702.319 91.2291ZM701.239 90.1878L700.16 91.2291L702.319 93.3117L703.399 92.2704L701.239 90.1878ZM709.784 81.9468L701.239 90.1878L703.399 92.2704L711.943 84.0294L709.784 81.9468ZM720.489 90.1882L711.943 81.9468L709.784 84.0294L718.329 92.2708L720.489 90.1882ZM721.568 91.2295L720.489 90.1882L718.329 92.2708L719.409 93.3121L721.568 91.2295ZM721.568 89.1469L719.409 91.2295L721.568 93.3121L723.728 91.2295L721.568 89.1469ZM720.489 90.1882L721.568 91.2295L723.728 89.1469L722.648 88.1056L720.489 90.1882ZM711.943 81.9468L720.489 90.1882L722.648 88.1056L714.103 79.8642L711.943 81.9468ZM720.488 71.6231L711.943 79.8642L714.103 81.9468L722.648 73.7057L720.488 71.6231Z" fill="#D4D4D4"/>
<path fill-rule="evenodd" clip-rule="evenodd" d="M191.633 32.6704C192.44 32.5353 193.247 32.3642 194.052 32.156C208.574 28.4031 217.192 14.0064 213.301 0L184.616 7.41288L191.633 32.6704Z" fill="#FE4F20"/>
<path d="M1412.59 395.876C1416.62 393.635 1421.77 394.965 1424.09 398.846C1428.3 405.874 1417.15 412.08 1421.36 419.107C1423.68 422.989 1428.83 424.319 1432.85 422.078" stroke="#0072CA" stroke-width="3"/>
<path d="M1282.34 211.997C1280.02 208.115 1281.39 203.152 1285.42 200.911C1292.71 196.853 1299.14 207.602 1306.43 203.544C1310.45 201.303 1311.83 196.34 1309.51 192.459" stroke="#40BE65" stroke-width="3"/>
<path fill-rule="evenodd" clip-rule="evenodd" d="M1130.9 523.807L1141.77 561.711L1101.83 551.389L1130.9 523.807V523.807Z" stroke="#40BE65" stroke-width="3"/>
</svg>
